<!DOCTYPE HTML PUBLIC "-//W3C//DTD HTML 4.0//EN" "http://www.w3.org/TR/REC-html40/strict.dtd">
<html><head><meta name="qrichtext" content="1" /><meta http-equiv="Content-Type" content="text/html; charset=UTF-8" /><style type="text/css">
p, li { white-space: pre-wrap; }
</style></head><body style=" font-family:'DejaVu Sans'; font-size:11pt; font-weight:400; font-style:normal;">
<p style=" margin-top:0px; margin-bottom:0px; margin-left:0px; margin-right:0px; -qt-block-indent:0; text-indent:0px;"><span style=" font-style:italic;">Современные бытовые видеокамеры SONY HANDYCAM HD AVCD HDR (например, CX-130), различные Full HD модели Panasonic и прочие комеры до сих пор имеют в своих форматах тяжелое наследие древних телевизионных стандартов. Одно из проявлений такого наследия - это запись видео в черезстрочном (interlace) режиме и использование форматов сохранения видео с неквадратным пикселем.</span></p>
<p style="-qt-paragraph-type:empty; margin-top:0px; margin-bottom:0px; margin-left:0px; margin-right:0px; -qt-block-indent:0; text-indent:0px;"><br /></p>
<p style=" margin-top:0px; margin-bottom:0px; margin-left:0px; margin-right:0px; -qt-block-indent:0; text-indent:0px;"><span style=" font-style:italic;">Для того, чтобы ориентироваться в этих форматах и правильно перекодировать видео, нужно знать как устроен кадр и какие характеристики он имеет.</span></p>
<p style="-qt-paragraph-type:empty; margin-top:0px; margin-bottom:0px; margin-left:0px; margin-right:0px; -qt-block-indent:0; text-indent:0px;"><br /></p>
<p style=" margin-top:0px; margin-bottom:0px; margin-left:0px; margin-right:0px; -qt-block-indent:0; text-indent:0px;">Для примера можно взять видеофайл с камеры Sony Handycam CX-130, который снимался в &quot;среднем&quot; режиме плотности записи STD, в широкоэкранном режиме 16:9, с интерлейсом. Разрешение у таких файлов <span style=" font-weight:600;">*.MTS</span>. Внутри таких файлов могут находиться различные форматы видео. Поэтому важно научиться доставать и понимать информацию о формате записанного видеопотока.</p>
<p style="-qt-paragraph-type:empty; margin-top:0px; margin-bottom:0px; margin-left:0px; margin-right:0px; -qt-block-indent:0; text-indent:0px;"><br /></p>
<p style=" margin-top:0px; margin-bottom:0px; margin-left:0px; margin-right:0px; -qt-block-indent:0; text-indent:0px;">Чтобы получать информацию о видеопотоке, можно воспользоваться программой ffmpeg. Вывод информации о формате - это опция <span style=" font-family:'DejaVu Sans Mono'; color:#6a0e07;">-i</span>. Вот что она может выдать:</p>
<p style="-qt-paragraph-type:empty; margin-top:0px; margin-bottom:0px; margin-left:0px; margin-right:0px; -qt-block-indent:0; text-indent:0px;"><br /></p>
<p style="-qt-paragraph-type:empty; margin-top:0px; margin-bottom:0px; margin-left:0px; margin-right:0px; -qt-block-indent:0; text-indent:0px;"><br /></p>
<p style=" margin-top:0px; margin-bottom:0px; margin-left:20px; margin-right:0px; -qt-block-indent:0; text-indent:0px;"><span style=" font-family:'DejaVu Sans Mono'; color:#6a0e07;">$ ffmpeg -i 00123.MTS</span></p>
<p style=" margin-top:0px; margin-bottom:0px; margin-left:20px; margin-right:0px; -qt-block-indent:0; text-indent:0px;"><span style=" font-family:'DejaVu Sans Mono'; color:#6a0e07;">Input #0, mpegts, from '00123.MTS':</span></p>
<p style=" margin-top:0px; margin-bottom:0px; margin-left:20px; margin-right:0px; -qt-block-indent:0; text-indent:0px;"><span style=" font-family:'DejaVu Sans Mono'; color:#6a0e07;">  Duration: 00:00:49.92, start: 1.040000, bitrate: 10492 kb/s</span></p>
<p style=" margin-top:0px; margin-bottom:0px; margin-left:20px; margin-right:0px; -qt-block-indent:0; text-indent:0px;"><span style=" font-family:'DejaVu Sans Mono'; color:#6a0e07;">  Program 1</span></p>
<p style=" margin-top:0px; margin-bottom:0px; margin-left:20px; margin-right:0px; -qt-block-indent:0; text-indent:0px;"><span style=" font-family:'DejaVu Sans Mono'; color:#6a0e07;">    Stream #0:0[0x1011]: Video: h264 (High) (HDMV / 0x564D4448), yuv420p(top first), </span><span style=" font-family:'DejaVu Sans Mono'; font-weight:600; color:#6a0e07;">1440x1080</span><span style=" font-family:'DejaVu Sans Mono'; color:#6a0e07;"> [</span><span style=" font-family:'DejaVu Sans Mono'; font-weight:600; color:#6a0e07;">SAR</span><span style=" font-family:'DejaVu Sans Mono'; color:#6a0e07;"> 4:3 </span><span style=" font-family:'DejaVu Sans Mono'; font-weight:600; color:#6a0e07;">DAR</span><span style=" font-family:'DejaVu Sans Mono'; color:#6a0e07;"> 16:9], </span><span style=" font-family:'DejaVu Sans Mono'; font-weight:600; color:#6a0e07;">25 fps</span><span style=" font-family:'DejaVu Sans Mono'; color:#6a0e07;">, </span><span style=" font-family:'DejaVu Sans Mono'; font-weight:600; color:#6a0e07;">50 tbr</span><span style=" font-family:'DejaVu Sans Mono'; color:#6a0e07;">, 90k tbn, </span><span style=" font-family:'DejaVu Sans Mono'; font-weight:600; color:#6a0e07;">50 tbc</span></p>
<p style=" margin-top:0px; margin-bottom:0px; margin-left:20px; margin-right:0px; -qt-block-indent:0; text-indent:0px;"><span style=" font-family:'DejaVu Sans Mono'; color:#6a0e07;">    Stream #0:1[0x1100]: Audio: ac3 (AC-3 / 0x332D4341), 48000 Hz, stereo, fltp, 256 kb/s</span></p>
<p style=" margin-top:0px; margin-bottom:0px; margin-left:20px; margin-right:0px; -qt-block-indent:0; text-indent:0px;"><span style=" font-family:'DejaVu Sans Mono'; color:#6a0e07;">    Stream #0:2[0x1200]: Subtitle: hdmv_pgs_subtitle ([144][0][0][0] / 0x0090), 1920x1080</span></p>
<p style="-qt-paragraph-type:empty; margin-top:0px; margin-bottom:0px; margin-left:0px; margin-right:0px; -qt-block-indent:0; text-indent:0px;"><br /></p>
<p style="-qt-paragraph-type:empty; margin-top:0px; margin-bottom:0px; margin-left:0px; margin-right:0px; -qt-block-indent:0; text-indent:0px;"><br /></p>
<p style=" margin-top:0px; margin-bottom:0px; margin-left:0px; margin-right:0px; -qt-block-indent:0; text-indent:0px;">Для начала нужно понять, какой же итоговый размер видео хранится в таком файле. Здесь видно размер 1440x1080, но если посмотреть в таблицу стандартных размеров кадра, то такого размера найти не получится:</p>
<p style="-qt-paragraph-type:empty; margin-top:0px; margin-bottom:0px; margin-left:0px; margin-right:0px; -qt-block-indent:0; text-indent:0px;"><br /></p>
<p style="-qt-paragraph-type:empty; margin-top:0px; margin-bottom:0px; margin-left:0px; margin-right:0px; -qt-block-indent:0; text-indent:0px;"><br /></p>
<p style="-qt-paragraph-type:empty; margin-top:0px; margin-bottom:0px; margin-left:0px; margin-right:0px; -qt-block-indent:0; text-indent:0px;"><br /></p>
<table border="1" style=" border-style:solid; margin-top:0px; margin-bottom:0px; margin-left:0px; margin-right:0px;" align="center" width="90%" cellspacing="-1" cellpadding="0" bgcolor="#ffffff">
<tr>
<td>
<p align="center" style=" margin-top:0px; margin-bottom:0px; margin-left:0px; margin-right:0px; -qt-block-indent:0; text-indent:0px;"><span style=" font-weight:600;">Поколение</span></p></td>
<td>
<p align="center" style=" margin-top:0px; margin-bottom:0px; margin-left:0px; margin-right:0px; -qt-block-indent:0; text-indent:0px;"><span style=" font-weight:600;">Тип</span></p></td>
<td>
<p align="center" style=" margin-top:0px; margin-bottom:0px; margin-left:0px; margin-right:0px; -qt-block-indent:0; text-indent:0px;"><span style=" font-weight:600;">Разреш., px</span></p></td>
<td>
<p align="center" style=" margin-top:0px; margin-bottom:0px; margin-left:0px; margin-right:0px; -qt-block-indent:0; text-indent:0px;"><span style=" font-weight:600;">Соотношение</span></p></td>
<td>
<p align="center" style=" margin-top:0px; margin-bottom:0px; margin-left:0px; margin-right:0px; -qt-block-indent:0; text-indent:0px;"><span style=" font-weight:600;">Формат</span></p></td>
<td>
<p align="center" style=" margin-top:0px; margin-bottom:0px; margin-left:0px; margin-right:0px; -qt-block-indent:0; text-indent:0px;"><span style=" font-weight:600;">Кадр фактич., px</span></p></td></tr>
<tr>
<td rowspan="4">
<p style=" margin-top:0px; margin-bottom:0px; margin-left:0px; margin-right:0px; -qt-block-indent:0; text-indent:0px;">SD – Standard Definition<br />(стандартная чёткость)</p></td>
<td rowspan="2">
<p style=" margin-top:0px; margin-bottom:0px; margin-left:0px; margin-right:0px; -qt-block-indent:0; text-indent:0px;">SD</p></td>
<td rowspan="2">
<p style=" margin-top:0px; margin-bottom:0px; margin-left:0px; margin-right:0px; -qt-block-indent:0; text-indent:0px;">720x576<br />(704x576)</p></td>
<td rowspan="2">
<p style=" margin-top:0px; margin-bottom:0px; margin-left:0px; margin-right:0px; -qt-block-indent:0; text-indent:0px;">4:3</p></td>
<td>
<p style=" margin-top:0px; margin-bottom:0px; margin-left:0px; margin-right:0px; -qt-block-indent:0; text-indent:0px;">576i</p></td>
<td>
<p style=" margin-top:0px; margin-bottom:0px; margin-left:0px; margin-right:0px; -qt-block-indent:0; text-indent:0px;">720x288<br />(704x288)</p></td></tr>
<tr>
<td>
<p style=" margin-top:0px; margin-bottom:0px; margin-left:0px; margin-right:0px; -qt-block-indent:0; text-indent:0px;">576p</p></td>
<td>
<p style=" margin-top:0px; margin-bottom:0px; margin-left:0px; margin-right:0px; -qt-block-indent:0; text-indent:0px;">720x576<br />(704x576)</p></td></tr>
<tr>
<td rowspan="2">
<p style=" margin-top:0px; margin-bottom:0px; margin-left:0px; margin-right:0px; -qt-block-indent:0; text-indent:0px;">SD</p></td>
<td rowspan="2">
<p style=" margin-top:0px; margin-bottom:0px; margin-left:0px; margin-right:0px; -qt-block-indent:0; text-indent:0px;">640x480</p></td>
<td rowspan="2">
<p style=" margin-top:0px; margin-bottom:0px; margin-left:0px; margin-right:0px; -qt-block-indent:0; text-indent:0px;">4:3</p></td>
<td>
<p style=" margin-top:0px; margin-bottom:0px; margin-left:0px; margin-right:0px; -qt-block-indent:0; text-indent:0px;">480i</p></td>
<td>
<p style=" margin-top:0px; margin-bottom:0px; margin-left:0px; margin-right:0px; -qt-block-indent:0; text-indent:0px;">640x240</p></td></tr>
<tr>
<td>
<p style=" margin-top:0px; margin-bottom:0px; margin-left:0px; margin-right:0px; -qt-block-indent:0; text-indent:0px;">480p</p></td>
<td>
<p style=" margin-top:0px; margin-bottom:0px; margin-left:0px; margin-right:0px; -qt-block-indent:0; text-indent:0px;">640x480</p></td></tr>
<tr>
<td rowspan="3">
<p style=" margin-top:0px; margin-bottom:0px; margin-left:0px; margin-right:0px; -qt-block-indent:0; text-indent:0px;">HD – High Definition<br />(высокая чёткость)</p></td>
<td>
<p style=" margin-top:0px; margin-bottom:0px; margin-left:0px; margin-right:0px; -qt-block-indent:0; text-indent:0px;">HD</p></td>
<td>
<p style=" margin-top:0px; margin-bottom:0px; margin-left:0px; margin-right:0px; -qt-block-indent:0; text-indent:0px;">1280x720</p></td>
<td>
<p style=" margin-top:0px; margin-bottom:0px; margin-left:0px; margin-right:0px; -qt-block-indent:0; text-indent:0px;">16:9</p></td>
<td>
<p style=" margin-top:0px; margin-bottom:0px; margin-left:0px; margin-right:0px; -qt-block-indent:0; text-indent:0px;">720p</p></td>
<td>
<p style=" margin-top:0px; margin-bottom:0px; margin-left:0px; margin-right:0px; -qt-block-indent:0; text-indent:0px;">1280x720</p></td></tr>
<tr>
<td rowspan="2">
<p style=" margin-top:0px; margin-bottom:0px; margin-left:0px; margin-right:0px; -qt-block-indent:0; text-indent:0px;">Full HD</p></td>
<td rowspan="2">
<p style=" margin-top:0px; margin-bottom:0px; margin-left:0px; margin-right:0px; -qt-block-indent:0; text-indent:0px;">1920x1080</p></td>
<td rowspan="2">
<p style=" margin-top:0px; margin-bottom:0px; margin-left:0px; margin-right:0px; -qt-block-indent:0; text-indent:0px;">16:9</p></td>
<td>
<p style=" margin-top:0px; margin-bottom:0px; margin-left:0px; margin-right:0px; -qt-block-indent:0; text-indent:0px;">1080i</p></td>
<td>
<p style=" margin-top:0px; margin-bottom:0px; margin-left:0px; margin-right:0px; -qt-block-indent:0; text-indent:0px;">1920x540</p></td></tr>
<tr>
<td>
<p style=" margin-top:0px; margin-bottom:0px; margin-left:0px; margin-right:0px; -qt-block-indent:0; text-indent:0px;">1080p</p></td>
<td>
<p style=" margin-top:0px; margin-bottom:0px; margin-left:0px; margin-right:0px; -qt-block-indent:0; text-indent:0px;">1920x1080</p></td></tr>
<tr>
<td rowspan="2">
<p style=" margin-top:0px; margin-bottom:0px; margin-left:0px; margin-right:0px; -qt-block-indent:0; text-indent:0px;">UHD – Ultra High Definition<br />(ультра высокая чёткость)</p></td>
<td>
<p style=" margin-top:0px; margin-bottom:0px; margin-left:0px; margin-right:0px; -qt-block-indent:0; text-indent:0px;">4K UHD</p></td>
<td>
<p style=" margin-top:0px; margin-bottom:0px; margin-left:0px; margin-right:0px; -qt-block-indent:0; text-indent:0px;">3840x2160</p></td>
<td>
<p style=" margin-top:0px; margin-bottom:0px; margin-left:0px; margin-right:0px; -qt-block-indent:0; text-indent:0px;">16:9</p></td>
<td>
<p style=" margin-top:0px; margin-bottom:0px; margin-left:0px; margin-right:0px; -qt-block-indent:0; text-indent:0px;">2160p</p></td>
<td>
<p style=" margin-top:0px; margin-bottom:0px; margin-left:0px; margin-right:0px; -qt-block-indent:0; text-indent:0px;">3840x2160</p></td></tr>
<tr>
<td>
<p style=" margin-top:0px; margin-bottom:0px; margin-left:0px; margin-right:0px; -qt-block-indent:0; text-indent:0px;">8K UHD</p></td>
<td>
<p style=" margin-top:0px; margin-bottom:0px; margin-left:0px; margin-right:0px; -qt-block-indent:0; text-indent:0px;">7680x4320</p></td>
<td>
<p style=" margin-top:0px; margin-bottom:0px; margin-left:0px; margin-right:0px; -qt-block-indent:0; text-indent:0px;">16:9</p></td>
<td>
<p style=" margin-top:0px; margin-bottom:0px; margin-left:0px; margin-right:0px; -qt-block-indent:0; text-indent:0px;">4320p</p></td>
<td>
<p style=" margin-top:0px; margin-bottom:0px; margin-left:0px; margin-right:0px; -qt-block-indent:0; text-indent:0px;">7680x4320</p></td></tr></table>
<p style="-qt-paragraph-type:empty; margin-top:0px; margin-bottom:0px; margin-left:0px; margin-right:0px; -qt-block-indent:0; text-indent:0px;"><br /></p>
<p style="-qt-paragraph-type:empty; margin-top:0px; margin-bottom:0px; margin-left:0px; margin-right:0px; -qt-block-indent:0; text-indent:0px;"><br /></p>
<p style=" margin-top:0px; margin-bottom:0px; margin-left:0px; margin-right:0px; -qt-block-indent:0; text-indent:0px;">В чем же дело? Давайте посмотрим соотношение сторон, может оно наведет нас на мысль. 1440/1080=1.333. Это значение - то же самое что и 4/3=1.333. Получается, что кадр этого видео, как на старых телевизорах, имеет соотношение размеров 4:3. Так? Надо проверить.</p>
<p style="-qt-paragraph-type:empty; margin-top:0px; margin-bottom:0px; margin-left:0px; margin-right:0px; -qt-block-indent:0; text-indent:0px;"><br /></p>
<p style=" margin-top:0px; margin-bottom:0px; margin-left:0px; margin-right:0px; -qt-block-indent:0; text-indent:0px;">Если мы запустим на просмотр данный видеофайл, то увидим, что соотношение сторон у него вовсе не 4:3. Даже невооруженным взглядом можно сразу увидеть, что видео &quot;широкоэкранное&quot;, и имеет соотношение 16:9=1.777. Какой из этого следует вывод? Как минимум такой, что изображение, на самом деле, имеет размер в экранных пикселях вовсе не 1440x1080! А какой же размер на самом деле?</p>
<p style="-qt-paragraph-type:empty; margin-top:0px; margin-bottom:0px; margin-left:0px; margin-right:0px; -qt-block-indent:0; text-indent:0px;"><br /></p>
<p style=" margin-top:0px; margin-bottom:0px; margin-left:0px; margin-right:0px; -qt-block-indent:0; text-indent:0px;">И вот тут надо понять одну вещь. Видеокадр кодируется в видеофайле не в экранных пикселях, а в своих собственных, &quot;виртуальных&quot; пикселях. А видеопроигрыватель преобразует эти виртуальные пиксели в экранные. Даже если в видеопроигрывателе поставить размер видео в 100%, то не факт, что каждый пиксель видео будет соответствовать каждому экранному пикселю. Почему? Потому что экранные пиксели на мониторе - квадратные, а &quot;виртуальные&quot; пиксели внутри видеофайла - могут быть (и часто бывают) совсем не квадратные, а прямоугольные!</p>
<p style="-qt-paragraph-type:empty; margin-top:0px; margin-bottom:0px; margin-left:0px; margin-right:0px; -qt-block-indent:0; text-indent:0px;"><br /></p>
<p align="center" style=" margin-top:0px; margin-bottom:0px; margin-left:0px; margin-right:0px; -qt-block-indent:0; text-indent:0px;">* * *</p>
<p style="-qt-paragraph-type:empty; margin-top:0px; margin-bottom:0px; margin-left:0px; margin-right:0px; -qt-block-indent:0; text-indent:0px;"><br /></p>
<p style=" margin-top:0px; margin-bottom:0px; margin-left:0px; margin-right:0px; -qt-block-indent:0; text-indent:0px;">В видеокодировании есть такое понятие - <span style=" font-weight:600;">PAR</span>, расшифровывающееся как Pixel Aspect Ratio. Понятно, что если PAR равен 1:1, то пиксель квадратный.</p>
<p style="-qt-paragraph-type:empty; margin-top:0px; margin-bottom:0px; margin-left:0px; margin-right:0px; -qt-block-indent:0; text-indent:0px;"><br /></p>
<p style=" margin-top:0px; margin-bottom:0px; margin-left:0px; margin-right:0px; -qt-block-indent:0; text-indent:0px;">Кроме того, есть еще два понятия: <span style=" font-weight:600;">SAR</span> и <span style=" font-weight:600;">DAR</span>. Что это такое? SAR - это Storage Aspect Ratio, то есть соотношение сторон кадра, записанного в текущем файле. (Следует обратить внимание, что PAR - это про пиксель, а SAR и DAR - это про кадр). И высчитывается SAR просто путем деления ширины кадра, в своих &quot;виртуальных&quot; пикселях, к высоте кадра, тоже в своих &quot;виртуальных&quot; пикселях. Размер кадра 1440x1080? Значит SAR=4:3. Все. (Тут, наверно, даже нехорошо называть пиксели кадра, записанного в видеофайл, &quot;виртуальными&quot;. Для самого файла они вполне себе настоящие. Но я их так называю потому, что эти пиксели могут быть не квадратными, и потому к привычному нам квадратному пикселю отнести их нельзя. И эти пиксели, будучи выведенными на квадратную сетку, отобразят записанную в них реальность с некоторым растяжением/сжатием, а не один в один).</p>
<p style="-qt-paragraph-type:empty; margin-top:0px; margin-bottom:0px; margin-left:0px; margin-right:0px; -qt-block-indent:0; text-indent:0px;"><br /></p>
<p style=" margin-top:0px; margin-bottom:0px; margin-left:0px; margin-right:0px; -qt-block-indent:0; text-indent:0px;">DAR - это Display Aspect Ratio, то есть соотношение сторон кадра, которое должно использоваться при выводе на экран. Если SAR и DAR не совпадают (и это нормальная ситуация), то видеоплеер должен сделать следующее: взять изображение в &quot;виртуальных&quot; пикселях, и при выводе их на экран растянуть картинку так, чтобы получилось соотношение сторон, заданное в DAR.</p>
<p style="-qt-paragraph-type:empty; margin-top:0px; margin-bottom:0px; margin-left:0px; margin-right:0px; -qt-block-indent:0; text-indent:0px;"><br /></p>
<p style="-qt-paragraph-type:empty; margin-top:0px; margin-bottom:0px; margin-left:0px; margin-right:0px; -qt-block-indent:0; text-indent:0px;"><br /></p>
<p style=" margin-top:0px; margin-bottom:0px; margin-left:0px; margin-right:0px; -qt-block-indent:0; text-indent:0px;">И теперь самое главное. Параметры PAR, SAR и DAR всегда связаны между собой простой формулой:</p>
<p style="-qt-paragraph-type:empty; margin-top:0px; margin-bottom:0px; margin-left:0px; margin-right:0px; -qt-block-indent:0; text-indent:0px;"><br /></p>
<p align="center" style=" margin-top:0px; margin-bottom:0px; margin-left:0px; margin-right:0px; -qt-block-indent:0; text-indent:0px;"><span style=" font-family:'DejaVu Sans Mono'; color:#6a0e07;">PAR = DAR / SAR</span></p>
<p style="-qt-paragraph-type:empty; margin-top:0px; margin-bottom:0px; margin-left:0px; margin-right:0px; -qt-block-indent:0; text-indent:0px;"><br /></p>
<p style=" margin-top:0px; margin-bottom:0px; margin-left:0px; margin-right:0px; -qt-block-indent:0; text-indent:0px;">или, что то же самое:</p>
<p style="-qt-paragraph-type:empty; margin-top:0px; margin-bottom:0px; margin-left:0px; margin-right:0px; -qt-block-indent:0; text-indent:0px;"><br /></p>
<p align="center" style=" margin-top:0px; margin-bottom:0px; margin-left:0px; margin-right:0px; -qt-block-indent:0; text-indent:0px;"><span style=" font-family:'DejaVu Sans Mono'; color:#6a0e07;">DAR = SAR × PAR</span></p>
<p style="-qt-paragraph-type:empty; margin-top:0px; margin-bottom:0px; margin-left:0px; margin-right:0px; -qt-block-indent:0; text-indent:0px;"><br /></p>
<p style=" margin-top:0px; margin-bottom:0px; margin-left:0px; margin-right:0px; -qt-block-indent:0; text-indent:0px;">или, что то же самое:</p>
<p style="-qt-paragraph-type:empty; margin-top:0px; margin-bottom:0px; margin-left:0px; margin-right:0px; -qt-block-indent:0; text-indent:0px;"><br /></p>
<p align="center" style=" margin-top:0px; margin-bottom:0px; margin-left:0px; margin-right:0px; -qt-block-indent:0; text-indent:0px;"><span style=" font-family:'DejaVu Sans Mono'; color:#6a0e07;">SAR = DAR / PAR</span></p>
<p style="-qt-paragraph-type:empty; margin-top:0px; margin-bottom:0px; margin-left:0px; margin-right:0px; -qt-block-indent:0; text-indent:0px;"><br /></p>
<p style="-qt-paragraph-type:empty; margin-top:0px; margin-bottom:0px; margin-left:0px; margin-right:0px; -qt-block-indent:0; text-indent:0px;"><br /></p>
<p style=" margin-top:0px; margin-bottom:0px; margin-left:0px; margin-right:0px; -qt-block-indent:0; text-indent:0px;">Теперь становится понятно, что значат различные параметры, записанные в нашем тестовом файле:</p>
<p style="-qt-paragraph-type:empty; margin-top:0px; margin-bottom:0px; margin-left:0px; margin-right:0px; -qt-block-indent:0; text-indent:0px;"><br /></p>
<p style=" margin-top:0px; margin-bottom:0px; margin-left:20px; margin-right:0px; -qt-block-indent:0; text-indent:0px;"><span style=" font-family:'DejaVu Sans Mono'; color:#6a0e07;">1440x1080 [SAR 4:3 DAR 16:9]</span></p>
<p style="-qt-paragraph-type:empty; margin-top:0px; margin-bottom:0px; margin-left:0px; margin-right:0px; -qt-block-indent:0; text-indent:0px;"><br /></p>
<p style=" margin-top:0px; margin-bottom:0px; margin-left:0px; margin-right:0px; -qt-block-indent:0; text-indent:0px;">Здесь видно, что размер кадра в &quot;виртуальных&quot; пикселях <span style=" font-family:'DejaVu Sans Mono'; color:#6a0e07;">1440x1080</span>, а значит <span style=" font-family:'DejaVu Sans Mono'; color:#6a0e07;">SAR = 1440 / 1080 = 1.333 = 4/3</span>. DAR задан равным <span style=" font-family:'DejaVu Sans Mono'; color:#6a0e07;">16:9=1.777</span>. Значит, по формуле, PAR = 1.777 / 1.333 = 1.333. Да, тут нету ошибки. При таких числах PAR действительно 1.333 (и он равен SAR). О чем говорит PAR=1.333? О том, что пиксель, записанный в видеофайл, имеет соотношение сторон 4:3, и описывает цвет картинки настоящего мира вот так:</p>
<p style="-qt-paragraph-type:empty; margin-top:0px; margin-bottom:0px; margin-left:0px; margin-right:0px; -qt-block-indent:0; text-indent:0px;"><br /></p>
<p style="-qt-paragraph-type:empty; margin-top:0px; margin-bottom:0px; margin-left:0px; margin-right:0px; -qt-block-indent:0; text-indent:0px;"><br /></p>
<p align="center" style=" margin-top:0px; margin-bottom:0px; margin-left:0px; margin-right:0px; -qt-block-indent:0; text-indent:0px;"><img src="image700307221.png" /></p>
<p style="-qt-paragraph-type:empty; margin-top:0px; margin-bottom:0px; margin-left:0px; margin-right:0px; -qt-block-indent:0; text-indent:0px;"><br /></p>
<p style="-qt-paragraph-type:empty; margin-top:0px; margin-bottom:0px; margin-left:0px; margin-right:0px; -qt-block-indent:0; text-indent:0px;"><br /></p>
<p style=" margin-top:0px; margin-bottom:0px; margin-left:0px; margin-right:0px; -qt-block-indent:0; text-indent:0px;">А в самом видеофайле пиксель - это просто одна ячейка с хранимым цветом. Поэтому при выводе картинки на экран, кадр нужно растягивать.</p>
<p style="-qt-paragraph-type:empty; margin-top:0px; margin-bottom:0px; margin-left:0px; margin-right:0px; -qt-block-indent:0; text-indent:0px;"><br /></p>
<p style=" margin-top:0px; margin-bottom:0px; margin-left:0px; margin-right:0px; -qt-block-indent:0; text-indent:0px;">Это можно проиллюстрировать в картинках. У всех современных LCD мониторов сетка пикселей квадратная. Если вывести необработанный &quot;виртуальный&quot; кадр с заснятым ровным кругом из вышеуказанного тестового видеофайла, то он будет выглядеть вот так:</p>
<p style="-qt-paragraph-type:empty; margin-top:0px; margin-bottom:0px; margin-left:0px; margin-right:0px; -qt-block-indent:0; text-indent:0px;"><br /></p>
<p style="-qt-paragraph-type:empty; margin-top:0px; margin-bottom:0px; margin-left:0px; margin-right:0px; -qt-block-indent:0; text-indent:0px;"><br /></p>
<p align="center" style=" margin-top:0px; margin-bottom:0px; margin-left:0px; margin-right:0px; -qt-block-indent:0; text-indent:0px;"><img src="image1544942116.png" /></p>
<p style="-qt-paragraph-type:empty; margin-top:0px; margin-bottom:0px; margin-left:0px; margin-right:0px; -qt-block-indent:0; text-indent:0px;"><br /></p>
<p style="-qt-paragraph-type:empty; margin-top:0px; margin-bottom:0px; margin-left:0px; margin-right:0px; -qt-block-indent:0; text-indent:0px;"><br /></p>
<p style=" margin-top:0px; margin-bottom:0px; margin-left:0px; margin-right:0px; -qt-block-indent:0; text-indent:0px;">А видеопроигрыватель, на основе значений SAR и DAR выведет такую картинку:</p>
<p style="-qt-paragraph-type:empty; margin-top:0px; margin-bottom:0px; margin-left:0px; margin-right:0px; -qt-block-indent:0; text-indent:0px;"><br /></p>
<p style="-qt-paragraph-type:empty; margin-top:0px; margin-bottom:0px; margin-left:0px; margin-right:0px; -qt-block-indent:0; text-indent:0px;"><br /></p>
<p align="center" style=" margin-top:0px; margin-bottom:0px; margin-left:0px; margin-right:0px; -qt-block-indent:0; text-indent:0px;"><img src="image1496218962.png" /></p>
<p style="-qt-paragraph-type:empty; margin-top:0px; margin-bottom:0px; margin-left:0px; margin-right:0px; -qt-block-indent:0; text-indent:0px;"><br /></p>
<p style="-qt-paragraph-type:empty; margin-top:0px; margin-bottom:0px; margin-left:0px; margin-right:0px; -qt-block-indent:0; text-indent:0px;"><br /></p>
<p style=" margin-top:0px; margin-bottom:0px; margin-left:0px; margin-right:0px; -qt-block-indent:0; text-indent:0px;">При перекодировании с целью изменения размера кадра в стандартные форматы, например в 720p или 1080p, которые имеют квадратные пиксели, нужно учитывать, что пиксели исходного файла не квадратные. Как же правильно перекодировать?</p>
<p style="-qt-paragraph-type:empty; margin-top:0px; margin-bottom:0px; margin-left:0px; margin-right:0px; -qt-block-indent:0; text-indent:0px;"><br /></p>
<p align="center" style=" margin-top:0px; margin-bottom:0px; margin-left:0px; margin-right:0px; -qt-block-indent:0; text-indent:0px;">* * *</p>
<p style="-qt-paragraph-type:empty; margin-top:0px; margin-bottom:0px; margin-left:0px; margin-right:0px; -qt-block-indent:0; text-indent:0px;"><br /></p>
<p style=" margin-top:0px; margin-bottom:0px; margin-left:0px; margin-right:0px; -qt-block-indent:0; text-indent:0px;">Вообще, при перекодировании существует <span style=" font-weight:600;">две возможности</span> - перекодировать размер с сохранением SAR и DAR, то есть картинка внутри кадра как была слющенная, так и останется. Либо перекодировать с приведением размера кадра к конечному размеру изображения. Считается, что первый вариант меньше повреждает картинку чем второй. </p>
<p style="-qt-paragraph-type:empty; margin-top:0px; margin-bottom:0px; margin-left:0px; margin-right:0px; -qt-block-indent:0; text-indent:0px;"><br /></p>
<p style=" margin-top:0px; margin-bottom:0px; margin-left:0px; margin-right:0px; -qt-block-indent:0; text-indent:0px;">Вот как пользоваться фильтром изменения размера кадра по первому варианту. Для высоты можно задать требуемую величину, а для ширины задать -1. Значение -1 заставит FFMpeg расчитать пропорциональную итоговую ширину с сохранением SAR. Пример:</p>
<p style="-qt-paragraph-type:empty; margin-top:0px; margin-bottom:0px; margin-left:0px; margin-right:0px; -qt-block-indent:0; text-indent:0px;"><br /></p>
<p style="-qt-paragraph-type:empty; margin-top:0px; margin-bottom:0px; margin-left:0px; margin-right:0px; -qt-block-indent:0; text-indent:0px;"><br /></p>
<p style=" margin-top:0px; margin-bottom:0px; margin-left:20px; margin-right:0px; -qt-block-indent:0; text-indent:0px;"><span style=" font-family:'DejaVu Sans Mono'; color:#6a0e07;">ffmpeg -i input.MTS -vf yadif -vf scale=-1:720:flags=bicubic -r 25 -vsync 1 -y -codec:v mjpeg -q:v 1 -g 0 -codec:a adpcm_ima_wav output.avi</span></p>
<p style="-qt-paragraph-type:empty; margin-top:0px; margin-bottom:0px; margin-left:0px; margin-right:0px; -qt-block-indent:0; text-indent:0px;"><br /></p>
<p style="-qt-paragraph-type:empty; margin-top:0px; margin-bottom:0px; margin-left:0px; margin-right:0px; -qt-block-indent:0; text-indent:0px;"><br /></p>
<p style=" margin-top:0px; margin-bottom:0px; margin-left:0px; margin-right:0px; -qt-block-indent:0; text-indent:0px;">Этот пример перекодирует видео из размера 1440x1080 в размер 960x720. SAR и DAR останутся те же. И информация в полученном файле будет такой:</p>
<p style="-qt-paragraph-type:empty; margin-top:0px; margin-bottom:0px; margin-left:0px; margin-right:0px; -qt-block-indent:0; text-indent:0px;"><br /></p>
<p style="-qt-paragraph-type:empty; margin-top:0px; margin-bottom:0px; margin-left:0px; margin-right:0px; -qt-block-indent:0; text-indent:0px;"><br /></p>
<p style=" margin-top:0px; margin-bottom:0px; margin-left:20px; margin-right:0px; -qt-block-indent:0; text-indent:0px;"><span style=" font-family:'DejaVu Sans Mono'; color:#6a0e07;">Input #0, avi, from '00123.MTS.avi':</span></p>
<p style=" margin-top:0px; margin-bottom:0px; margin-left:20px; margin-right:0px; -qt-block-indent:0; text-indent:0px;"><span style=" font-family:'DejaVu Sans Mono'; color:#6a0e07;">  Metadata:</span></p>
<p style=" margin-top:0px; margin-bottom:0px; margin-left:20px; margin-right:0px; -qt-block-indent:0; text-indent:0px;"><span style=" font-family:'DejaVu Sans Mono'; color:#6a0e07;">    encoder         : Lavf57.56.100</span></p>
<p style=" margin-top:0px; margin-bottom:0px; margin-left:20px; margin-right:0px; -qt-block-indent:0; text-indent:0px;"><span style=" font-family:'DejaVu Sans Mono'; color:#6a0e07;">  Duration: 00:01:42.44, start: 0.000000, bitrate: 22296 kb/s</span></p>
<p style=" margin-top:0px; margin-bottom:0px; margin-left:20px; margin-right:0px; -qt-block-indent:0; text-indent:0px;"><span style=" font-family:'DejaVu Sans Mono'; color:#6a0e07;">    Stream #0:0: Video: mjpeg (MJPG / 0x47504A4D), yuvj420p(pc, bt470bg/unknown/unknown), </span><span style=" font-family:'DejaVu Sans Mono'; font-weight:600; color:#6a0e07;">960x720</span><span style=" font-family:'DejaVu Sans Mono'; color:#6a0e07;"> [</span><span style=" font-family:'DejaVu Sans Mono'; font-weight:600; color:#6a0e07;">SAR</span><span style=" font-family:'DejaVu Sans Mono'; color:#6a0e07;"> 4:3 </span><span style=" font-family:'DejaVu Sans Mono'; font-weight:600; color:#6a0e07;">DAR</span><span style=" font-family:'DejaVu Sans Mono'; color:#6a0e07;"> 16:9], 21903 kb/s, 25 fps, 25 tbr, 25 tbn, 25 tbc</span></p>
<p style=" margin-top:0px; margin-bottom:0px; margin-left:20px; margin-right:0px; -qt-block-indent:0; text-indent:0px;"><span style=" font-family:'DejaVu Sans Mono'; color:#6a0e07;">    Stream #0:1: Audio: adpcm_ima_wav ([17][0][0][0] / 0x0011), 48000 Hz, stereo, s16p, 384 kb/s</span></p>
<p style="-qt-paragraph-type:empty; margin-top:0px; margin-bottom:0px; margin-left:0px; margin-right:0px; -qt-block-indent:0; text-indent:0px;"><br /></p>
<p style="-qt-paragraph-type:empty; margin-top:0px; margin-bottom:0px; margin-left:0px; margin-right:0px; -qt-block-indent:0; text-indent:0px;"><br /></p>
<p style=" margin-top:0px; margin-bottom:0px; margin-left:0px; margin-right:0px; -qt-block-indent:0; text-indent:0px;">В принципе, все программы видеоредактирования и видеопроигрыватели нормально поймут такой формат, и будут выдавать на экран картинку размером 1280x720 pix (что является форматом 720p).</p>
<p style="-qt-paragraph-type:empty; margin-top:0px; margin-bottom:0px; margin-left:0px; margin-right:0px; -qt-block-indent:0; text-indent:0px;"><br /></p>
<p style=" margin-top:0px; margin-bottom:0px; margin-left:0px; margin-right:0px; -qt-block-indent:0; text-indent:0px;">Но нам привычнее всего работать с квадратными пикселями. Поэтому можно поступить по второму варианту:</p>
<p style="-qt-paragraph-type:empty; margin-top:0px; margin-bottom:0px; margin-left:0px; margin-right:0px; -qt-block-indent:0; text-indent:0px;"><br /></p>
<p style="-qt-paragraph-type:empty; margin-top:0px; margin-bottom:0px; margin-left:0px; margin-right:0px; -qt-block-indent:0; text-indent:0px;"><br /></p>
<p style=" margin-top:0px; margin-bottom:0px; margin-left:20px; margin-right:0px; -qt-block-indent:0; text-indent:0px;"><span style=" font-family:'DejaVu Sans Mono'; color:#6a0e07;">ffmpeg -threads 2 -i input.MTS -vf yadif -vf scale=</span><span style=" font-family:'DejaVu Sans Mono'; font-weight:600; color:#6a0e07;">1280</span><span style=" font-family:'DejaVu Sans Mono'; color:#6a0e07;">:720:flags=bicubic</span><span style=" font-family:'DejaVu Sans Mono'; font-weight:600; color:#6a0e07;">,setsar=1:1</span><span style=" font-family:'DejaVu Sans Mono'; color:#6a0e07;"> -r 25 -vsync 1 -y -codec:v mjpeg -q:v 1 -g 0 -codec:a adpcm_ima_wav output.avi</span></p>
<p style="-qt-paragraph-type:empty; margin-top:0px; margin-bottom:0px; margin-left:0px; margin-right:0px; -qt-block-indent:0; text-indent:0px;"><br /></p>
<p style="-qt-paragraph-type:empty; margin-top:0px; margin-bottom:0px; margin-left:0px; margin-right:0px; -qt-block-indent:0; text-indent:0px;"><br /></p>
<p style=" margin-top:0px; margin-bottom:0px; margin-left:0px; margin-right:0px; -qt-block-indent:0; text-indent:0px;">Эта команда абсолютно аналогична первой, за исключением добавленной опции <span style=" font-family:'DejaVu Sans Mono'; color:#6a0e07;">&quot;,setsar=1:1&quot;</span> и точным указанием размера кадра. После такого конвертирования информация о новом видеофайле будет следующая:</p>
<p style="-qt-paragraph-type:empty; margin-top:0px; margin-bottom:0px; margin-left:0px; margin-right:0px; -qt-block-indent:0; text-indent:0px;"><br /></p>
<p style="-qt-paragraph-type:empty; margin-top:0px; margin-bottom:0px; margin-left:0px; margin-right:0px; -qt-block-indent:0; text-indent:0px;"><br /></p>
<p style=" margin-top:0px; margin-bottom:0px; margin-left:20px; margin-right:0px; -qt-block-indent:0; text-indent:0px;"><span style=" font-family:'DejaVu Sans Mono'; color:#6a0e07;">Input #0, avi, from '00123.MTS.avi':</span></p>
<p style=" margin-top:0px; margin-bottom:0px; margin-left:20px; margin-right:0px; -qt-block-indent:0; text-indent:0px;"><span style=" font-family:'DejaVu Sans Mono'; color:#6a0e07;">  Metadata:</span></p>
<p style=" margin-top:0px; margin-bottom:0px; margin-left:20px; margin-right:0px; -qt-block-indent:0; text-indent:0px;"><span style=" font-family:'DejaVu Sans Mono'; color:#6a0e07;">    encoder         : Lavf57.56.100</span></p>
<p style=" margin-top:0px; margin-bottom:0px; margin-left:20px; margin-right:0px; -qt-block-indent:0; text-indent:0px;"><span style=" font-family:'DejaVu Sans Mono'; color:#6a0e07;">  Duration: 00:00:49.92, start: 0.000000, bitrate: 23812 kb/s</span></p>
<p style=" margin-top:0px; margin-bottom:0px; margin-left:20px; margin-right:0px; -qt-block-indent:0; text-indent:0px;"><span style=" font-family:'DejaVu Sans Mono'; color:#6a0e07;">    Stream #0:0: Video: mjpeg (MJPG / 0x47504A4D), yuvj420p(pc, bt470bg/unknown/unknown), </span><span style=" font-family:'DejaVu Sans Mono'; font-weight:600; color:#6a0e07;">1280x720</span><span style=" font-family:'DejaVu Sans Mono'; color:#6a0e07;"> [</span><span style=" font-family:'DejaVu Sans Mono'; font-weight:600; color:#6a0e07;">SAR</span><span style=" font-family:'DejaVu Sans Mono'; color:#6a0e07;"> 1:1 </span><span style=" font-family:'DejaVu Sans Mono'; font-weight:600; color:#6a0e07;">DAR</span><span style=" font-family:'DejaVu Sans Mono'; color:#6a0e07;"> 16:9], 23428 kb/s, 25 fps, 25 tbr, 25 tbn, 25 tbc</span></p>
<p style=" margin-top:0px; margin-bottom:0px; margin-left:20px; margin-right:0px; -qt-block-indent:0; text-indent:0px;"><span style=" font-family:'DejaVu Sans Mono'; color:#6a0e07;">    Stream #0:1: Audio: adpcm_ima_wav ([17][0][0][0] / 0x0011), 48000 Hz, stereo, s16p, 384 kb/s</span></p>
<p style="-qt-paragraph-type:empty; margin-top:0px; margin-bottom:0px; margin-left:0px; margin-right:0px; -qt-block-indent:0; text-indent:0px;"><br /></p>
<p style="-qt-paragraph-type:empty; margin-top:0px; margin-bottom:0px; margin-left:0px; margin-right:0px; -qt-block-indent:0; text-indent:0px;"><br /></p>
<p style=" margin-top:0px; margin-bottom:0px; margin-left:0px; margin-right:0px; -qt-block-indent:0; text-indent:0px;">Вот теперь получился файл, который закодирован точка-в-точку под обычный квадратный пиксель.</p>
<p style="-qt-paragraph-type:empty; margin-top:0px; margin-bottom:0px; margin-left:0px; margin-right:0px; -qt-block-indent:0; text-indent:0px;"><br /></p>
<p style=" margin-top:0px; margin-bottom:0px; margin-left:0px; margin-right:0px; -qt-block-indent:0; text-indent:0px;">Каким вариантом пользоваться? Я считаю, что современные разрешения достаточно высоки, чтобы не волноваться о потери качества при перекодировании по второму варианту. В конце концов, такие преобразования размеров сопряжены еще и с преобразованием с интерлейса на деинтерлейс. Тут уже исходная картинка сильно изменяется. Гораздо удобнее работать с квадратным пикселем. Поэтому я однозначно выбираю второй вариант.</p>
<p style="-qt-paragraph-type:empty; margin-top:0px; margin-bottom:0px; margin-left:0px; margin-right:0px; -qt-block-indent:0; text-indent:0px;"><br /></p>
<p align="center" style=" margin-top:0px; margin-bottom:0px; margin-left:0px; margin-right:0px; -qt-block-indent:0; text-indent:0px;">* * *</p>
<p style="-qt-paragraph-type:empty; margin-top:0px; margin-bottom:0px; margin-left:0px; margin-right:0px; -qt-block-indent:0; text-indent:0px;"><br /></p>
<p style=" margin-top:0px; margin-bottom:0px; margin-left:0px; margin-right:0px; -qt-block-indent:0; text-indent:0px;">Далее хотел еще написать про FPS, но в принципе, современный <span style=" font-family:'DejaVu Sans Mono'; color:#6a0e07;">ffmpeg</span> корректно преобразует черезстрочное видео с частотой 50fps на полукадр в прогрессивное видео с частотой 25fps. Достаточно задать опцию &quot;-r 25&quot;. Поэтому никаких подробностей о fps, tbr и tbc в этой статье не будет. Я приведу только выдержку из документации и попытку перевода неким <span style=" font-weight:600;">arch!ver</span> с <span style=" font-family:'DejaVu Sans Mono'; color:#6a0e07;">forum.ubuntu.ru</span>:</p>
<p style="-qt-paragraph-type:empty; margin-top:0px; margin-bottom:0px; margin-left:0px; margin-right:0px; -qt-block-indent:0; text-indent:0px;"><br /></p>
<ul style="margin-top: 0px; margin-bottom: 0px; margin-left: 0px; margin-right: 0px; -qt-list-indent: 1;"><li style=" margin-top:0px; margin-bottom:0px; margin-left:0px; margin-right:0px; -qt-block-indent:0; text-indent:0px;">tbn = the time base in AVStream that has come from the container</li>
<li style=" margin-top:0px; margin-bottom:0px; margin-left:0px; margin-right:0px; -qt-block-indent:0; text-indent:0px;">tbc = the time base in AVCodecContext for the codec used for a particular stream</li>
<li style=" margin-top:0px; margin-bottom:0px; margin-left:0px; margin-right:0px; -qt-block-indent:0; text-indent:0px;">tbr = tbr is guessed from the video stream and is the value users want to see when they look for the video frame rate</li></ul>
<p style="-qt-paragraph-type:empty; margin-top:0px; margin-bottom:0px; margin-left:0px; margin-right:0px; -qt-block-indent:0; text-indent:0px;"><br /></p>
<p style=" margin-top:0px; margin-bottom:0px; margin-left:0px; margin-right:0px; -qt-block-indent:0; text-indent:0px;">Перевод:</p>
<p style="-qt-paragraph-type:empty; margin-top:0px; margin-bottom:0px; margin-left:0px; margin-right:0px; -qt-block-indent:0; text-indent:0px;"><br /></p>
<ul style="margin-top: 0px; margin-bottom: 0px; margin-left: 0px; margin-right: 0px; -qt-list-indent: 1;"><li style=" margin-top:0px; margin-bottom:0px; margin-left:0px; margin-right:0px; -qt-block-indent:0; text-indent:0px;">tbn - временная база (метка времени per second) AVStream (аудио/видео потока), которая пришла из контейнера (взятая из входного файла, уведомление-извещение - notification)... Time Base Notification</li>
<li style=" margin-top:0px; margin-bottom:0px; margin-left:0px; margin-right:0px; -qt-block-indent:0; text-indent:0px;">tbc - временная метка AVCodecContext используемая для кодека конкретного потока (аудио или видио) - Time Base Сorrection (или Codec,Context..?)...</li>
<li style=" margin-top:0px; margin-bottom:0px; margin-left:0px; margin-right:0px; -qt-block-indent:0; text-indent:0px;">tbr - предполагаемая метка времени, взятая из потока в виде пользовательского значения, установленного самим юзером. Показывается для того, чтобы пользователь мог видеть - установленную частоту кадров в секунду... Time Base R(?...Rate...?) или..? To Be Record (&quot;Будет записано&quot;, - известный термин)... Здесь дело не в знании языка, а в знакомстве с терминами или их типами.</li></ul>
<p style="-qt-paragraph-type:empty; margin-top:0px; margin-bottom:0px; margin-left:0px; margin-right:0px; -qt-block-indent:0; text-indent:0px;"><br /></p>
<p style="-qt-paragraph-type:empty; margin-top:0px; margin-bottom:0px; margin-left:0px; margin-right:0px; -qt-block-indent:0; text-indent:0px;"><br /></p>
<p style="-qt-paragraph-type:empty; margin-top:0px; margin-bottom:0px; margin-left:0px; margin-right:0px; -qt-block-indent:0; text-indent:0px;"><br /></p></body></html>